<?xml version="1.0" encoding="utf-8"?>
<!-- Generator: Adobe Illustrator 24.3.0, SVG Export Plug-In . SVG Version: 6.00 Build 0)  -->
<svg version="1.1" id="Layer_1" xmlns="http://www.w3.org/2000/svg" xmlns:xlink="http://www.w3.org/1999/xlink" x="0px" y="0px"
	 viewBox="0 0 1920 969" style="enable-background:new 0 0 1920 969;" xml:space="preserve">
<style type="text/css">
	.st0{opacity:0.8;fill:#374F74;stroke:#000000;stroke-width:0.8928;stroke-miterlimit:3.1883;enable-background:new    ;}
	.st1{opacity:0.8;fill:#375037;stroke:#000000;stroke-width:0.8928;stroke-miterlimit:3.1883;enable-background:new    ;}
	.st2{fill-opacity:0;stroke:#000000;stroke-width:0.8928;stroke-miterlimit:3.1883;stroke-opacity:0.8;}
	.st3{fill-opacity:0;stroke:#000000;stroke-width:0.9386;stroke-miterlimit:3.1883;stroke-opacity:0.8;}
	.st4{fill:none;stroke:#000000;stroke-width:0.8928;stroke-miterlimit:3.1883;stroke-opacity:0.8;}
	.st5{font-family:'Helvetica';}
	.st6{font-size:10.7135px;}
	.st7{fill:none;stroke:#000000;stroke-width:0.8928;stroke-miterlimit:3.1883;}
	.st8{fill:none;stroke:#000000;stroke-miterlimit:3.5712;}
	.st9{font-family:'ArialMT';}
	.st10{font-size:10px;}
	.st11{fill:#FFFFFF;}
	.st12{font-size:11px;}
	.st13{font-size:9px;}
	.st14{fill:none;stroke:#333333;}
	.st15{fill:#335544;}
	.st16{font-family:'KozGoPr6N-Regular-83pv-RKSJ-H';}
	.st17{fill:#335533;}
	.st18{fill:#454770;}
	.st19{fill:#404040;}
	.st20{fill:#EEEEEE;}
	.st21{fill:none;stroke:#000000;stroke-miterlimit:10;}
</style>
<g>
	<g transform="translate(495.6639859805316,-9.87489724699185) scale(0.8927892750921192)">
		<rect id="_x30__x5F_0" x="161.7" y="316.1" class="st0" width="96" height="187.5"/>
		<rect id="_x30__x5F_1" x="170.7" y="325.1" class="st1" width="96" height="187.5"/>
		<rect id="_x30__x5F_2" x="179.7" y="334.1" class="st0" width="96" height="187.5"/>
		<rect id="_x30__x5F_3" x="188.7" y="343.1" class="st1" width="96" height="187.5"/>
		<rect id="_x30__x5F_4" x="197.7" y="352.1" class="st0" width="96" height="187.5"/>
		<rect id="_x30__x5F_5" x="206.7" y="361.1" class="st1" width="96" height="187.5"/>
		<rect id="_x30__x5F_6" x="215.7" y="370.1" class="st0" width="96" height="187.5"/>
		<rect id="_x30__x5F_7" x="224.7" y="379.1" class="st1" width="96" height="187.5"/>
		<rect id="_x30__x5F_8" x="233.7" y="388.1" class="st0" width="96" height="187.5"/>
		<rect id="_x30__x5F_9" x="242.7" y="397.1" class="st1" width="96" height="187.5"/>
		<rect id="_x30__x5F_10" x="251.7" y="406.1" class="st0" width="96" height="187.5"/>
		<rect id="_x30__x5F_11" x="260.7" y="415.1" class="st1" width="96" height="187.5"/>
		<rect id="_x30__x5F_12" x="269.7" y="424.1" class="st0" width="96" height="187.5"/>
		<rect id="_x30__x5F_13" x="278.7" y="433.1" class="st1" width="96" height="187.5"/>
		<rect id="_x30__x5F_14" x="287.7" y="442.1" class="st0" width="96" height="187.5"/>
		<rect id="_x30__x5F_15" x="296.7" y="451.1" class="st1" width="96" height="187.5"/>
		<rect id="_x30__x5F_16" x="305.7" y="460.1" class="st0" width="96" height="187.5"/>
		<rect id="_x30__x5F_17" x="314.7" y="469.1" class="st1" width="96" height="187.5"/>
		<rect id="_x30__x5F_18" x="323.7" y="478.1" class="st0" width="96" height="187.5"/>
		<rect id="_x30__x5F_19" x="332.7" y="487.1" class="st1" width="96" height="187.5"/>
		<rect id="_x30__x5F_20" x="341.7" y="496.1" class="st0" width="96" height="187.5"/>
		<rect id="_x30__x5F_21" x="350.7" y="505.1" class="st1" width="96" height="187.5"/>
		<rect id="_x30__x5F_22" x="359.7" y="514.1" class="st0" width="96" height="187.5"/>
		<rect id="_x30__x5F_23" x="368.7" y="523.1" class="st1" width="96" height="187.5"/>
		<rect id="_x30__x5F_24" x="377.7" y="532.1" class="st0" width="96" height="187.5"/>
		<rect id="_x30__x5F_25" x="386.7" y="541.1" class="st1" width="96" height="187.5"/>
		<rect id="_x30__x5F_26" x="395.7" y="550.1" class="st0" width="96" height="187.5"/>
		<rect id="_x30__x5F_27" x="404.7" y="559.1" class="st1" width="96" height="187.5"/>
		<rect id="_x30__x5F_28" x="413.7" y="568.1" class="st0" width="96" height="187.5"/>
		<rect id="_x30__x5F_29" x="422.7" y="577.1" class="st1" width="96" height="187.5"/>
		<rect id="_x30__x5F_30" x="431.7" y="586.1" class="st0" width="96" height="187.5"/>
		<rect id="_x30__x5F_31" x="440.7" y="595.1" class="st1" width="96" height="187.5"/>
		<rect id="_x31__x5F_0" x="566.7" y="316.1" class="st0" width="96" height="187.5"/>
		<rect id="_x31__x5F_1" x="575.7" y="325.1" class="st1" width="96" height="187.5"/>
		<rect id="_x31__x5F_2" x="584.7" y="334.1" class="st0" width="96" height="187.5"/>
		<rect id="_x31__x5F_3" x="593.7" y="343.1" class="st1" width="96" height="187.5"/>
		<rect id="_x31__x5F_4" x="602.7" y="352.1" class="st0" width="96" height="187.5"/>
		<rect id="_x31__x5F_5" x="611.7" y="361.1" class="st1" width="96" height="187.5"/>
		<rect id="_x31__x5F_6" x="620.7" y="370.1" class="st0" width="96" height="187.5"/>
		<rect id="_x31__x5F_7" x="629.7" y="379.1" class="st1" width="96" height="187.5"/>
		<rect id="_x31__x5F_8" x="638.7" y="388.1" class="st0" width="96" height="187.5"/>
		<rect id="_x31__x5F_9" x="647.7" y="397.1" class="st1" width="96" height="187.5"/>
		<rect id="_x31__x5F_10" x="656.7" y="406.1" class="st0" width="96" height="187.5"/>
		<rect id="_x31__x5F_11" x="665.7" y="415.1" class="st1" width="96" height="187.5"/>
		<rect id="_x31__x5F_12" x="674.7" y="424.1" class="st0" width="96" height="187.5"/>
		<rect id="_x31__x5F_13" x="683.7" y="433.1" class="st1" width="96" height="187.5"/>
		<rect id="_x31__x5F_14" x="692.7" y="442.1" class="st0" width="96" height="187.5"/>
		<rect id="_x31__x5F_15" x="701.7" y="451.1" class="st1" width="96" height="187.5"/>
		<rect id="_x31__x5F_16" x="710.7" y="460.1" class="st0" width="96" height="187.5"/>
		<rect id="_x31__x5F_17" x="719.7" y="469.1" class="st1" width="96" height="187.5"/>
		<rect id="_x31__x5F_18" x="728.7" y="478.1" class="st0" width="96" height="187.5"/>
		<rect id="_x31__x5F_19" x="737.7" y="487.1" class="st1" width="96" height="187.5"/>
		<rect id="_x31__x5F_20" x="746.7" y="496.1" class="st0" width="96" height="187.5"/>
		<rect id="_x31__x5F_21" x="755.7" y="505.1" class="st1" width="96" height="187.5"/>
		<rect id="_x31__x5F_22" x="764.7" y="514.1" class="st0" width="96" height="187.5"/>
		<rect id="_x31__x5F_23" x="773.7" y="523.1" class="st1" width="96" height="187.5"/>
		<rect id="_x31__x5F_24" x="782.7" y="532.1" class="st0" width="96" height="187.5"/>
		<rect id="_x31__x5F_25" x="791.7" y="541.1" class="st1" width="96" height="187.5"/>
		<rect id="_x31__x5F_26" x="800.7" y="550.1" class="st0" width="96" height="187.5"/>
		<rect id="_x31__x5F_27" x="809.7" y="559.1" class="st1" width="96" height="187.5"/>
		<rect id="_x31__x5F_28" x="818.7" y="568.1" class="st0" width="96" height="187.5"/>
		<rect id="_x31__x5F_29" x="827.7" y="577.1" class="st1" width="96" height="187.5"/>
		<rect id="_x31__x5F_30" x="836.7" y="586.1" class="st0" width="96" height="187.5"/>
		<rect id="_x31__x5F_31" x="845.7" y="595.1" class="st1" width="96" height="187.5"/>
		<g>
			<rect id="_x32__x5F_0" x="949.2" y="455.6" class="st0" width="96" height="31.5"/>
			<rect id="_x33__x5F_0" x="1055.7" y="455.6" class="st0" width="96" height="31.5"/>
		</g>
		<path id="conv_0" class="st2" d="M509,649.7L509,649.7L509,649.7z"/>
		<path id="conv_1" class="st2" d="M861.4,703.1L861.4,703.1L861.4,703.1z"/>
		<path id="conv_2" class="st3" d="M1008.1,473.5L1008.1,473.5L1008.1,473.5z"/>
		<line id="conv_0_2_" class="st4" x1="536.7" y1="649.7" x2="841.7" y2="649.7"/>
		<path d="M839,646.3l6.7,3.4l-6.7,3.4l2.7-3.4L839,646.3z"/>
		<text transform="matrix(1.1201 0 0 1.1201 458.3329 810.2662)" class="st5 st6">Embedding</text>
		<text transform="matrix(1.1201 0 0 1.1201 842.9921 810.2662)" class="st5 st6">Spatial Dropout 1D</text>
		<g>
			<text transform="matrix(1.1201 0 0 1.1201 966.8427 467.5472)" class="st5 st6">Global Max</text>
			<text transform="matrix(1.1201 0 0 1.1201 967.8506 481.9965)" class="st5 st6">Pooling 1D</text>
			<text transform="matrix(1.1201 0 0 1.1201 1082.3422 474.7473)" class="st5 st6">Dropout</text>
		</g>
		<text transform="matrix(1.1201 0 0 1.1201 170.7028 301.2609)" class="st5 st6">32@250x128</text>
		<text transform="matrix(1.1201 0 0 1.1201 575.7036 301.2609)" class="st5 st6">32@250x128</text>
		<g>
			<text transform="matrix(1.1201 0 0 1.1201 968.0875 440.7608)" class="st5 st6">1@32x128</text>
			<text transform="matrix(1.1201 0 0 1.1201 1074.5873 440.7608)" class="st5 st6">1@32x128</text>
		</g>
		<path d="M1049,470.1l6.7,3.4l-6.7,3.4l2.7-3.4L1049,470.1z"/>
		<path d="M951.3,491.9l5.8-4.8l0.4,7.5l-2-3.8L951.3,491.9z"/>
		<path class="st7" d="M909.2,595.1"/>
		<line class="st7" x1="909.2" y1="595.1" x2="955.4" y2="490.8"/>
	</g>
	<g id="origin" transform="translate(9.171875, 9.171875) scale(1)">
		<g id="clusters">
		</g>
		<g id="edge-paths">
			<path class="st8" d="M0,0"/>
			<path d="M464,185l-3,6l-3-6l3,2.4L464,185z"/>
			<path id="edge-input" d="M461,190.4"/>
			<path d="M0,0"/>
			<path d="M464,280.3l-3,6l-3-6l3,2.4L464,280.3z"/>
			<path id="edge-embedding_input" d="M461,285.7"/>
			<path d="M0,0"/>
			<path d="M464,414.6l-3,6l-3-6l3,2.4L464,414.6z"/>
			<path id="edge-embedding" d="M461,420"/>
			<path d="M0,0"/>
			<path d="M464,496.6l-3,6l-3-6l3,2.4L464,496.6z"/>
			<path id="edge-spatial_dropout1d" d="M461,502"/>
			<path d="M0,0"/>
			<path d="M464,578.8l-3,6l-3-6l3,2.4L464,578.8z"/>
			<path id="edge-global_max_pooling1d" d="M461,584.2"/>
			<path d="M0,0"/>
			<path d="M464,660.8l-3,6l-3-6l3,2.4L464,660.8z"/>
			<path id="edge-dropout" d="M461,666.2"/>
			<path d="M0,0"/>
			<path d="M464,781.8l-3,6l-3-6l3,2.4L464,781.8z"/>
			<path id="edge-dense" d="M461,787.2"/>
		</g>
		<g id="edge-labels">
			<g transform="translate(89.1328125,42)">
				<g transform="translate(-12.2265625,-6)">
					<text transform="matrix(1 0 0 1 390.081 137.4409)" class="st9 st10">input</text>
				</g>
			</g>
			<g transform="translate(118.6015625,137.25)">
				<g transform="translate(-41.6953125,-6.015625)">
					<text transform="matrix(1 0 0 1 390.081 137.4409)" class="st9 st10">embedding_input</text>
				</g>
			</g>
			<g transform="translate(103.90625,271.515625)">
				<g transform="translate(-27,-6.015625)">
					<text transform="matrix(1 0 0 1 390.081 137.441)" class="st9 st10">embedding</text>
				</g>
			</g>
			<g transform="translate(119.5546875,353.53125)">
				<g transform="translate(-42.6484375,-6)">
					<text transform="matrix(1 0 0 1 390.081 137.441)" class="st9 st10">spatial_dropout1d</text>
				</g>
			</g>
			<g transform="translate(129.671875,435.78125)">
				<g transform="translate(-52.765625,-6.015625)">
					<text transform="matrix(1 0 0 1 390.081 137.441)" class="st9 st10">global_max_pooling1d</text>
				</g>
			</g>
			<g transform="translate(95.9140625,517.796875)">
				<g transform="translate(-19.0078125,-6)">
					<text transform="matrix(1 0 0 1 390.081 137.441)" class="st9 st10">dropout</text>
				</g>
			</g>
			<g transform="translate(91.5234375,638.796875)">
				<g transform="translate(-14.6171875,-6)">
					<text transform="matrix(1 0 0 1 390.081 137.4409)" class="st9 st10">dense</text>
				</g>
			</g>
		</g>
		<g id="nodes">
			<g id="node-embedding_input" transform="translate(71.90625,89.6171875)">
				<g transform="translate(-52.375,-26.6171875)">
					<g>
						<g transform="translate(0,0)">
							<path d="M394.1,127.4h94.8c2.8,0,5,2.2,5,5v16.2l0,0H389.1l0,0v-16.2C389.1,129.7,391.3,127.4,394.1,127.4z"/>
							<text transform="matrix(1 0 0 1 395.081 142.4409)" class="st11 st9 st12">embedding_input</text>
						</g>
						<g transform="translate(0,21.234375)">
							<path class="st11" d="M389.1,127.4h104.8l0,0v27c0,2.8-2.2,5-5,5h-94.8c-2.8,0-5-2.2-5-5L389.1,127.4L389.1,127.4z"/>
							<text transform="matrix(1 0 0 1 395.081 140.4409)" class="st9 st13">ragged</text>
							<text transform="matrix(1 0 0 1 423.116 140.4409)" class="st9 st13"> = false</text>
							<text transform="matrix(1 0 0 1 395.081 153.4409)" class="st9 st13">sparse</text>
							<text transform="matrix(1 0 0 1 422.1799 153.4409)" class="st9 st13"> = false</text>
							<line class="st14" x1="389.1" y1="127.4" x2="493.8" y2="127.4"/>
						</g>
						<path class="st14" d="M394.1,127.4h94.8c2.8,0,5,2.2,5,5v43.2c0,2.8-2.2,5-5,5h-94.8c-2.8,0-5-2.2-5-5v-43.2
							C389.1,129.7,391.3,127.4,394.1,127.4z"/>
					</g>
				</g>
			</g>
			<g id="node-embedding" transform="translate(71.90625,204.3828125)">
				<g transform="translate(-71.90625,-46.1171875)">
					<g>
						<g transform="translate(0,0)">
							<path class="st15" d="M394.1,127.4h133.8c2.8,0,5,2.2,5,5v16.2l0,0H389.1l0,0v-16.2C389.1,129.7,391.3,127.4,394.1,127.4z"/>
							<text transform="matrix(1 0 0 1 395.081 142.441)" class="st11 st9 st12">embedding</text>
						</g>
						<g transform="translate(0,21.234375)">
							<path class="st11" d="M389.1,127.4h143.8l0,0v66c0,2.8-2.2,5-5,5H394.1c-2.8,0-5-2.2-5-5V127.4L389.1,127.4z"/>
							<text transform="matrix(1 0 0 1 395.081 140.4409)" class="st9 st13">embeddings</text>
							<text transform="matrix(1 0 0 1 444.1038 141.0651)" class="st16 st13">〈</text>
							<text transform="matrix(1 0 0 1 453.1038 140.4409)" class="st9 st13">50001×128</text>
							<text transform="matrix(1 0 0 1 495.6038 141.0651)" class="st16 st13">〉</text>
							<text transform="matrix(1 0 0 1 395.081 153.4409)" class="st9 st13">batch_input_shape</text>
							<text transform="matrix(1 0 0 1 471.4637 153.4409)" class="st9 st13"> = null, 250</text>
							<text transform="matrix(1 0 0 1 395.081 166.4409)" class="st9 st13">input_dim</text>
							<text transform="matrix(1 0 0 1 434.0956 166.4409)" class="st9 st13"> = 50001</text>
							<text transform="matrix(1 0 0 1 395.081 179.4409)" class="st9 st13">input_length</text>
							<text transform="matrix(1 0 0 1 444.1127 179.4409)" class="st9 st13"> = 250</text>
							<text transform="matrix(1 0 0 1 395.081 192.4409)" class="st9 st13">output_dim</text>
							<text transform="matrix(1 0 0 1 439.6038 192.4409)" class="st9 st13"> = 128</text>
							<line class="st14" x1="389.1" y1="127.4" x2="532.9" y2="127.4"/>
						</g>
						<path class="st14" d="M394.1,127.4h133.8c2.8,0,5,2.2,5,5v82.2c0,2.8-2.2,5-5,5H394.1c-2.8,0-5-2.2-5-5v-82.2
							C389.1,129.7,391.3,127.4,394.1,127.4z"/>
					</g>
				</g>
			</g>
			<g id="node-spatial_dropout1d" transform="translate(71.90625,312.53125)">
				<g transform="translate(-53.3671875,-20)">
					<g>
						<g transform="translate(0,0)">
							<path d="M394.1,127.4h96.7c2.8,0,5,2.2,5,5v16l0,0H389.1l0,0v-16C389.1,129.7,391.3,127.4,394.1,127.4z"/>
							<text transform="matrix(1 0 0 1 395.081 142.441)" class="st11 st9 st12">spatial_dropout1d</text>
						</g>
						<g transform="translate(0,21)">
							<path class="st11" d="M389.1,127.4h106.7l0,0v14c0,2.8-2.2,5-5,5h-96.7c-2.8,0-5-2.2-5-5L389.1,127.4L389.1,127.4z"/>
							<text transform="matrix(1 0 0 1 395.081 140.441)" class="st9 st13">rate</text>
							<text transform="matrix(1 0 0 1 410.66 140.441)" class="st9 st13"> = 0.2</text>
							<line class="st14" x1="389.1" y1="127.4" x2="495.8" y2="127.4"/>
						</g>
						<path class="st14" d="M394.1,127.4h96.7c2.8,0,5,2.2,5,5v30c0,2.8-2.2,5-5,5h-96.7c-2.8,0-5-2.2-5-5v-30
							C389.1,129.7,391.3,127.4,394.1,127.4z"/>
					</g>
				</g>
			</g>
			<g id="node-global_max_pooling1d" transform="translate(71.90625,394.6484375)">
				<g transform="translate(-67.5859375,-20.1171875)">
					<g>
						<g transform="translate(0,0)">
							<path class="st17" d="M394.1,127.4h125.2c2.8,0,5,2.2,5,5v16.2l0,0H389.1l0,0v-16.2C389.1,129.7,391.3,127.4,394.1,127.4z"/>
							<text transform="matrix(1 0 0 1 395.081 142.441)" class="st11 st9 st12">global_max_pooling1d</text>
						</g>
						<g transform="translate(0,21.234375)">
							<path class="st11" d="M389.1,127.4h135.2l0,0v14c0,2.8-2.2,5-5,5H394.1c-2.8,0-5-2.2-5-5V127.4L389.1,127.4z"/>
							<text transform="matrix(1 0 0 1 395.081 140.441)" class="st9 st13">data_format</text>
							<text transform="matrix(1 0 0 1 443.6268 140.441)" class="st9 st13"> = channels_last</text>
							<line class="st14" x1="389.1" y1="127.4" x2="524.3" y2="127.4"/>
						</g>
						<path class="st14" d="M394.1,127.4h125.2c2.8,0,5,2.2,5,5v30.2c0,2.8-2.2,5-5,5H394.1c-2.8,0-5-2.2-5-5v-30.2
							C389.1,129.7,391.3,127.4,394.1,127.4z"/>
					</g>
				</g>
			</g>
			<g id="node-dropout" transform="translate(71.90625,476.796875)">
				<g transform="translate(-50,-20)">
					<g>
						<g transform="translate(0,0)">
							<path class="st18" d="M394.1,127.4h90c2.8,0,5,2.2,5,5v16l0,0h-100l0,0v-16C389.1,129.7,391.3,127.4,394.1,127.4z"/>
							<text transform="matrix(1 0 0 1 395.081 142.441)" class="st11 st9 st12">dropout</text>
						</g>
						<g transform="translate(0,21)">
							<path class="st11" d="M389.1,127.4h100l0,0v14c0,2.8-2.2,5-5,5h-90c-2.8,0-5-2.2-5-5V127.4L389.1,127.4z"/>
							<text transform="matrix(1 0 0 1 395.081 140.441)" class="st9 st13">rate</text>
							<text transform="matrix(1 0 0 1 410.66 140.441)" class="st9 st13"> = 0.2</text>
							<line class="st14" x1="389.1" y1="127.4" x2="489.1" y2="127.4"/>
						</g>
						<path class="st14" d="M394.1,127.4h90c2.8,0,5,2.2,5,5v30c0,2.8-2.2,5-5,5h-90c-2.8,0-5-2.2-5-5v-30
							C389.1,129.7,391.3,127.4,394.1,127.4z"/>
					</g>
				</g>
			</g>
			<g id="node-dense" transform="translate(71.90625,578.296875)">
				<g transform="translate(-50.8125,-39.5)">
					<g>
						<g transform="translate(0,0)">
							<path class="st19" d="M394.1,127.4h91.6c2.8,0,5,2.2,5,5v16l0,0H389.1l0,0v-16C389.1,129.7,391.3,127.4,394.1,127.4z"/>
							<text transform="matrix(1 0 0 1 395.081 142.441)" class="st11 st9 st12">dense</text>
						</g>
						<g transform="translate(0,21)">
							<path class="st11" d="M389.1,127.4h101.6l0,0v53c0,2.8-2.2,5-5,5h-91.6c-2.8,0-5-2.2-5-5V127.4L389.1,127.4z"/>
							<text transform="matrix(1 0 0 1 395.081 140.441)" class="st9 st13">kernel</text>
							<text transform="matrix(1 0 0 1 419.5878 141.0652)" class="st16 st13">〈</text>
							<text transform="matrix(1 0 0 1 428.5878 140.441)" class="st9 st13">128×1013</text>
							<text transform="matrix(1 0 0 1 466.0878 141.0652)" class="st16 st13">〉</text>
							<text transform="matrix(1 0 0 1 395.081 153.441)" class="st9 st13">bias</text>
							<text transform="matrix(1 0 0 1 411.5869 154.0652)" class="st16 st13">〈</text>
							<text transform="matrix(1 0 0 1 420.5869 153.441)" class="st9 st13">1013</text>
							<text transform="matrix(1 0 0 1 440.5869 154.0652)" class="st16 st13">〉</text>
							<text transform="matrix(1 0 0 1 395.081 166.441)" class="st9 st13">activation</text>
							<text transform="matrix(1 0 0 1 433.1058 166.441)" class="st9 st13"> = softmax</text>
							<text transform="matrix(1 0 0 1 395.081 179.441)" class="st9 st13">units</text>
							<text transform="matrix(1 0 0 1 414.0889 179.441)" class="st9 st13"> = 1013</text>
							<line class="st14" x1="389.1" y1="127.4" x2="490.7" y2="127.4"/>
						</g>
						<path class="st14" d="M394.1,127.4h91.6c2.8,0,5,2.2,5,5v69c0,2.8-2.2,5-5,5h-91.6c-2.8,0-5-2.2-5-5v-69
							C389.1,129.7,391.3,127.4,394.1,127.4z"/>
					</g>
				</g>
			</g>
			<g transform="translate(71.90625,10.5)">
				<g transform="translate(-20.2890625,-10.5)">
					<g>
						<g transform="translate(0,0)">
							<path class="st20" d="M394.1,127.4h30.6c2.8,0,5,2.2,5,5v11c0,2.8-2.2,5-5,5h-30.6c-2.8,0-5-2.2-5-5v-11
								C389.1,129.7,391.3,127.4,394.1,127.4z"/>
							<text transform="matrix(1 0 0 1 395.081 142.4409)" class="st9 st12">input</text>
						</g>
						<path class="st14" d="M394.1,127.4h30.6c2.8,0,5,2.2,5,5v11c0,2.8-2.2,5-5,5h-30.6c-2.8,0-5-2.2-5-5v-11
							C389.1,129.7,391.3,127.4,394.1,127.4z"/>
					</g>
				</g>
			</g>
			<g transform="translate(71.90625,670.296875)">
				<g transform="translate(-22.9140625,-10.5)">
					<g>
						<g transform="translate(0,0)">
							<path class="st20" d="M394.1,127.4h35.8c2.8,0,5,2.2,5,5v11c0,2.8-2.2,5-5,5h-35.8c-2.8,0-5-2.2-5-5v-11
								C389.1,129.7,391.3,127.4,394.1,127.4z"/>
							<text transform="matrix(1 0 0 1 395.081 142.4409)" class="st9 st12">dense</text>
						</g>
						<path class="st14" d="M394.1,127.4h35.8c2.8,0,5,2.2,5,5v11c0,2.8-2.2,5-5,5h-35.8c-2.8,0-5-2.2-5-5v-11
							C389.1,129.7,391.3,127.4,394.1,127.4z"/>
					</g>
				</g>
			</g>
		</g>
	</g>
	<line class="st21" x1="470.2" y1="196.6" x2="470.2" y2="157.6"/>
	<line class="st21" x1="470.2" y1="291.9" x2="470.2" y2="252.8"/>
	<line class="st21" x1="470.2" y1="426.1" x2="470.2" y2="387.1"/>
	<line class="st21" x1="470.2" y1="508.1" x2="470.2" y2="469.1"/>
	<line class="st21" x1="470.2" y1="590.4" x2="470.2" y2="551.4"/>
	<line class="st21" x1="470.2" y1="672.4" x2="470.2" y2="633.4"/>
	<line class="st21" x1="470.2" y1="793.4" x2="470.2" y2="754.4"/>
	<line class="st8" x1="1434.6" y1="412.8" x2="1428.8" y2="412.8"/>
</g>
</svg>
